<?xml version="1.0" encoding="UTF-8"?>
<svg width="65px" height="74px" viewBox="0 0 65 74" version="1.1" xmlns="http://www.w3.org/2000/svg" xmlns:xlink="http://www.w3.org/1999/xlink">
    <!-- Generator: Sketch 61.2 (89653) - https://sketch.com -->
    <title>Asset 8</title>
    <desc>Created with Sketch.</desc>
    <g id="Symbols" stroke="none" stroke-width="1" fill="none" fill-rule="evenodd">
        <g id="Logo/text">
            <g id="Asset-8">
                <path d="M15.92,59.45 L15.92,13.16 C16.0492772,11.4664965 15.5706312,9.78237164 14.57,8.41 C13.5391469,7.31487193 12.0700957,6.74194198 10.57,6.85 C9.34700445,6.86446773 8.12685592,6.97143965 6.92,7.17 C6.01962005,7.32254136 5.11161389,7.42602736 4.2,7.48 C3.13516938,7.52834287 2.09164121,7.17097021 1.28,6.48 C0.547259535,5.7946694 0.152405428,4.82215836 0.2,3.82 C0.118035022,2.76548 0.51460252,1.7299982 1.28,1 C2.27773411,0.302940675 3.48666294,-0.0258031282 4.7,0.07 C5.33,0.07 7.2,0.17 10.31,0.38 C13.42,0.59 16.14,0.7 18.49,0.7 C21.1566667,0.7 24.8233333,0.593333333 29.49,0.38 C34.1566667,0.166666667 37.49,0.0633333333 39.49,0.07 C47.63,0.07 53.7633333,1.81 57.89,5.29 C62.0166667,8.77 64.0533333,13.94 64,20.8 C64.0877555,24.0568187 63.4703165,27.2941097 62.19,30.29 C60.9064033,33.0041953 58.9343008,35.334862 56.47,37.05 C54.2446484,38.6923713 51.7000449,39.8505577 49,40.45 C44.6399447,41.2409525 40.2094231,41.5760903 35.78,41.45 C34.55,41.45 33.21,41.45 31.78,41.45 C30.35,41.45 29.47,41.45 29.22,41.45 C28.0712477,41.3513855 26.9155972,41.5297055 25.85,41.97 C25.2491912,42.4650547 24.9311734,43.2245561 25,44 L25,59.43 C25,61.81 25.46,63.43 26.37,64.35 C27.28,65.27 28.88,65.69 31.16,65.69 C32.0964452,65.6566024 33.0290638,65.5529781 33.95,65.38 C34.8708769,65.2049442 35.8034021,65.0979879 36.74,65.06 C37.7993232,65.033069 38.8242127,65.4372507 39.58,66.18 C40.3466738,66.8979716 40.7689724,67.9100321 40.74,68.96 C40.7914548,70.1527317 40.1848388,71.2776587 39.16,71.89 C37.7578205,72.6475917 36.1703441,72.9942022 34.58,72.89 C33.2066667,72.89 30.8733333,72.7833333 27.58,72.57 C24.2866667,72.3566667 21.7066667,72.25 19.84,72.25 C16.86,72.25 13.6933333,72.3566667 10.34,72.57 C6.99,72.78 5.12,72.89 4.73,72.89 C3.50587848,72.9879653 2.28851446,72.6320109 1.31,71.89 C0.510067325,71.0774653 0.104669292,69.9562293 0.2,68.82 C0.164847213,67.8023809 0.556365145,66.8163358 1.28,66.1 C2.03535367,65.3746449 3.05359685,64.9882902 4.1,65.03 C5.02724063,65.0605035 5.95037821,65.167534 6.86,65.35 C7.72035248,65.5226981 8.59313086,65.6263615 9.47,65.66 C11.79,65.66 13.47,65.18 14.47,64.21 C15.47,63.24 15.92,61.69 15.92,59.45 Z M25,31.1 C24.8672627,32.1008208 25.3327942,33.0866523 26.19,33.62 C26.98,34.02 28.88,34.23 31.9,34.23 C40.5666667,34.23 46.5233333,33.23 49.77,31.23 C53.0166667,29.23 54.64,25.7666667 54.64,20.84 C54.64,15.78 53.21,12.18 50.35,10.04 C47.49,7.9 42.6366667,6.83 35.79,6.83 C30.79,6.83 27.79,7.19 26.66,7.9 C25.53,8.61 25,10.23 25,12.68 L25,31.1 Z" id="Shape" fill="#231F20" fill-rule="nonzero"></path>
                <path d="M51.0017922,66.4725627 C50.9607706,64.749269 51.625435,63.0839959 52.8417922,61.8625627 C54.0599822,60.6266797 55.737166,59.9529082 57.4717922,60.0025627 C59.2070755,59.9655961 60.8825214,60.6372188 62.1117922,61.8625627 C64.2418499,63.9436151 64.6970989,67.2008847 63.2192309,69.7861953 C61.7413629,72.3715058 58.7035707,73.6320119 55.8294989,72.8525017 C52.9554272,72.0729915 50.9708397,69.4503079 51.0017922,66.4725627 L51.0017922,66.4725627 Z" id="Path" fill="#41EA99"></path>
            </g>
        </g>
    </g>
</svg>