<?xml version="1.0" encoding="UTF-8"?>
<svg width="659px" height="798px" viewBox="0 0 659 798" version="1.1" xmlns="http://www.w3.org/2000/svg" xmlns:xlink="http://www.w3.org/1999/xlink">
    <!-- Generator: Sketch 61.2 (89653) - https://sketch.com -->
    <title>shuttlepad_isologo</title>
    <desc>Created with Sketch.</desc>
    <g id="brand-logo" stroke="none" stroke-width="1" fill="none" fill-rule="evenodd">
        <g id="icon" transform="translate(-171.000000, -101.000000)" fill="#FFFFFF" fill-rule="nonzero">
            <g id="shuttlepad_isologo" transform="translate(171.000000, 101.000000)">
                <path d="M17.5884556,192.817654 L452.358584,354.303702 C454.914534,355.253054 456.610367,357.691968 456.610367,360.418532 L456.610367,705.931206 C456.610367,756.366997 415.724082,797.253279 365.288294,797.253279 C355.60429,797.253279 345.981919,795.712969 336.781808,792.690078 L4.4868277,683.507442 C1.80963087,682.627789 0,680.128389 0,677.310379 L0,205.047314 C0,197.842201 5.84089785,192.001303 13.0460105,192.001303 C14.5966416,192.001303 16.1348548,192.277745 17.5884556,192.817654 Z" id="Path"></path>
                <path d="M217.559245,0.442284817 L654.600595,165.124533 C657.141488,166.08197 658.823529,168.513279 658.823529,171.22857 L658.823529,513.518865 C658.823529,567.55721 615.016795,611.363944 560.978451,611.363944 C555.358971,611.363944 549.749937,610.879835 544.21356,609.916987 L508.794409,603.757135 L508.794409,340.766063 C508.794409,338.08088 507.14894,335.67004 504.648382,334.691561 L212.882194,220.522183 C210.381637,219.543705 208.736168,217.132864 208.736168,214.447682 L208.736168,6.54632172 C208.736168,2.94376542 211.656617,0.0233164953 215.259173,0.0233164953 C216.044838,0.0233164953 216.824042,0.165251851 217.559245,0.442284817 Z" id="Path-2"></path>
            </g>
        </g>
    </g>
</svg>