<?xml version="1.0" encoding="UTF-8"?>
<svg width="24px" height="24px" viewBox="0 0 24 24" version="1.1" xmlns="http://www.w3.org/2000/svg" xmlns:xlink="http://www.w3.org/1999/xlink">
    <!-- Generator: Sketch 55.1 (78136) - https://sketchapp.com -->
    <title>dribbble</title>
    <desc>Created with Sketch.</desc>
    <g id="Page-1" stroke="none" stroke-width="1" fill="none" fill-rule="evenodd">
        <g id="Desktop" transform="translate(-150.000000, -107.000000)">
            <g id="Group-3" transform="translate(60.000000, 107.000000)">
                <g id="dribbble" transform="translate(90.000000, 0.000000)">
                    <circle id="Oval" fill="#EC407A" cx="12" cy="11.919" r="11.25"></circle>
                    <path d="M12,0 C5.3835,0 0,5.3835 0,12 C0,18.6165 5.3835,24 12,24 C18.6165,24 24,18.6165 24,12 C24,5.3835 18.6165,0 12,0 Z M22.4955,12.09 C19.9545,11.4195 17.349,11.3415 14.8665,11.853 C14.5275,11.007 14.1615,10.1745 13.7685,9.3525 C16.014,8.3025 18.09,6.879 19.911,5.1195 C21.5175,6.963 22.5,9.366 22.5,12 C22.5,12.03 22.4955,12.0585 22.4955,12.09 Z M18.8505,4.0605 C17.1495,5.703 15.2145,7.041 13.1175,8.019 C11.997,5.874 10.686,3.825 9.2025,1.89 C10.095,1.6425 11.0295,1.5 12,1.5 C14.6175,1.5 17.01,2.469 18.8505,4.0605 Z M7.7205,2.421 C9.243,4.359 10.5795,6.423 11.718,8.5845 C8.568,9.7875 5.148,10.2495 1.7235,9.849 C2.418,6.525 4.692,3.78 7.7205,2.421 Z M1.5,12 C1.5,11.775 1.5195,11.5545 1.5345,11.334 C2.4225,11.439 3.3105,11.508 4.1955,11.508 C7.0185,11.508 9.792,10.956 12.3915,9.9435 C12.7515,10.6935 13.0905,11.454 13.404,12.225 C9.717,13.332 6.432,15.693 4.221,19.0275 C2.5365,17.1645 1.5,14.703 1.5,12 Z M5.3175,20.0925 C7.3515,16.8945 10.4535,14.64 13.944,13.62 C14.892,16.23 15.5745,18.9405 15.972,21.714 C14.7465,22.218 13.4055,22.5 12,22.5 C9.4635,22.5 7.134,21.5955 5.3175,20.0925 Z M17.379,21 C16.9665,18.357 16.3125,15.7695 15.417,13.272 C17.6835,12.846 20.055,12.9465 22.365,13.599 C21.8805,16.743 20.004,19.425 17.379,21 Z" id="Shape" fill="#C2185B" fill-rule="nonzero"></path>
                </g>
            </g>
        </g>
    </g>
</svg>