<?xml version="1.0" encoding="UTF-8"?>
<svg width="24px" height="24px" viewBox="0 0 24 24" version="1.1" xmlns="http://www.w3.org/2000/svg" xmlns:xlink="http://www.w3.org/1999/xlink">
    <!-- Generator: Sketch 55.1 (78136) - https://sketchapp.com -->
    <title>linkedin</title>
    <desc>Created with Sketch.</desc>
    <g id="Page-1" stroke="none" stroke-width="1" fill="none" fill-rule="evenodd">
        <g id="Desktop" transform="translate(-60.000000, -107.000000)" fill="#0077B7" fill-rule="nonzero">
            <g id="Group-3" transform="translate(60.000000, 107.000000)">
                <g id="linkedin">
                    <path d="M21.8290052,0 L2.17099476,0 C0.972,0 0,0.972 0,2.17099476 L0,21.8289424 C0,23.028 0.972,24 2.17099476,24 L21.8289424,24 C23.028,24 24,23.028 24,21.8289424 L24,2.17099476 C24,0.972 23.028,0 21.8290052,0 Z M7.4266178,20.7231832 C7.4266178,21.0721257 7.14376963,21.3549738 6.79482723,21.3549738 L4.10544503,21.3549738 C3.75650262,21.3549738 3.47365445,21.0721257 3.47365445,20.7231832 L3.47365445,9.44940314 C3.47365445,9.10046073 3.75650262,8.81761257 4.10544503,8.81761257 L6.79482723,8.81761257 C7.14376963,8.81761257 7.4266178,9.10046073 7.4266178,9.44940314 L7.4266178,20.7231832 Z M5.45013613,7.75489005 C4.03909948,7.75489005 2.89520419,6.61099476 2.89520419,5.19995812 C2.89520419,3.78892147 4.03909948,2.64502618 5.45013613,2.64502618 C6.86117277,2.64502618 8.00506806,3.78892147 8.00506806,5.19995812 C8.00506806,6.61099476 6.8612356,7.75489005 5.45013613,7.75489005 Z M21.4812583,20.7740733 C21.4812583,21.0948691 21.2211518,21.3549738 20.900356,21.3549738 L18.0144503,21.3549738 C17.6936545,21.3549738 17.4335497,21.0948691 17.4335497,20.7740733 L17.4335497,15.4860314 C17.4335497,14.6971728 17.6649424,12.0292147 15.372,12.0292147 C13.5934241,12.0292147 13.2326702,13.8553508 13.1602304,14.6748691 L13.1602304,20.7740733 C13.1602304,21.0948691 12.9001885,21.3549738 12.5793298,21.3549738 L9.78816754,21.3549738 C9.46737173,21.3549738 9.20726702,21.0948691 9.20726702,20.7740733 L9.20726702,9.39851309 C9.20726702,9.07771728 9.46737173,8.81761257 9.78816754,8.81761257 L12.5793298,8.81761257 C12.9001257,8.81761257 13.1602304,9.07771728 13.1602304,9.39851309 L13.1602304,10.3820733 C13.8197277,9.39235602 14.7998325,8.62843979 16.8866387,8.62843979 C21.5077068,8.62843979 21.4812583,12.9456754 21.4812583,15.3177801 L21.4812583,20.7740733 L21.4812583,20.7740733 Z" id="Shape"></path>
                </g>
            </g>
        </g>
    </g>
</svg>