<?xml version="1.0" encoding="UTF-8"?>
<svg width="21px" height="24px" viewBox="0 0 21 24" version="1.1" xmlns="http://www.w3.org/2000/svg" xmlns:xlink="http://www.w3.org/1999/xlink">
    <!-- Generator: Sketch 55.1 (78136) - https://sketchapp.com -->
    <title>nadle</title>
    <desc>Created with Sketch.</desc>
    <defs>
        <path d="M17.5796483,0.13862069 L11.6315793,0.13862069 L11.5959931,0.13862069 C10.1632345,0.13862069 9.00192414,1.29993103 9.00192414,2.73268966 L9.00192414,5.77427586 L9.00192414,21.1992414 L2.9679931,21.1992414 L2.9679931,12.2017241 L0.0354413793,12.2017241 C0.0294413793,12.2652414 0.0253034483,12.3302069 0.0253034483,12.3974483 L0.0253034483,21.1992414 L0.0253034483,23.7931034 L9.00192414,23.7931034 C10.4543379,23.7931034 11.6315793,22.6156552 11.6315793,21.1634483 L11.6315793,2.73268966 L17.5796483,2.73268966 L17.5796483,11.8237241 L20.5059931,11.8237241 C20.5378552,11.5152414 20.5477862,11.1798621 20.5477862,10.8289655 L20.522131,2.73268966 L20.5477862,0.13862069 L17.5796483,0.13862069 Z" id="path-1"></path>
        <linearGradient x1="0.00014214856%" y1="49.9998251%" x2="100.000041%" y2="49.9998251%" id="linearGradient-3">
            <stop stop-color="#0090FF" offset="0%"></stop>
            <stop stop-color="#823FFF" offset="100%"></stop>
        </linearGradient>
        <path d="M5.83392414,0.022137931 C2.61192414,0.0372413793 0.0122689655,2.66151724 0.0275120299,5.88331034 C0.0275120299,5.88537931 0.0279931034,5.99586207 0.0279931034,5.99793103 L2.97109655,5.95489655 C2.97047586,4.29310345 4.18351034,2.84255172 5.84695862,2.83468966 C7.26357931,2.82806897 8.45364828,3.79903448 8.78654483,5.11282759 C8.78716552,5.11158621 8.78882069,5.10786207 8.78882069,5.10786207 C8.78882069,5.10786207 8.82523448,5.2142069 8.86661379,5.38903448 L8.86433793,5.32593103 C8.8659931,5.35406897 8.86930345,5.38158621 8.87137241,5.40951724 C8.90075172,5.53655172 8.93075172,5.69834483 8.95247586,5.88124138 L8.95268276,5.88124138 C8.9739931,6.036 9.00171724,6.23441379 9.00937241,6.28903448 C9.27047586,7.40855172 9.8504069,8.40434483 10.6523379,9.17317241 C11.7068897,10.1842759 13.1375793,10.8053793 14.7139241,10.7979973 C17.9357172,10.7828276 20.5351655,8.15855172 20.5201276,4.93675862 C20.5192345,4.74227586 20.5043379,4.55131034 20.4828207,4.3617931 L17.5746828,4.37544828 L17.5771655,4.8717931 C17.5850276,6.5402069 16.3690966,7.97731034 14.7006828,7.98537931 C13.3306138,7.9917931 12.1726138,7.08413793 11.7966828,5.83593103 L11.7950276,5.83551724 L11.7944069,5.83448276 L11.7966828,5.83593103 C11.7966828,5.83593103 11.7348207,5.66482759 11.6977862,5.51731034 C11.6694414,5.37248276 11.6464759,5.20903448 11.630131,5.08117241 L11.630131,5.08096552 C11.6224759,5.02241379 11.5912345,4.82668966 11.5728207,4.71103448 C11.3344759,3.51868966 10.7396483,2.45627586 9.89509655,1.64689655 C8.84675172,0.642 7.42682069,0.022137931 5.86185517,0.022137931 C5.85233793,0.022137931 5.84323448,0.022137931 5.83392414,0.022137931 Z" id="path-4"></path>
        <linearGradient x1="-0.0100808169%" y1="50.1237733%" x2="100.009767%" y2="49.8761926%" id="linearGradient-6">
            <stop stop-color="#0090FF" offset="0%"></stop>
            <stop stop-color="#823FFF" offset="100%"></stop>
        </linearGradient>
    </defs>
    <g id="Page-1" stroke="none" stroke-width="1" fill="none" fill-rule="evenodd">
        <g id="Desktop" transform="translate(-194.000000, -107.000000)">
            <g id="Group-3" transform="translate(60.000000, 107.000000)">
                <g id="nadle" transform="translate(134.000000, 0.000000)">
                    <g id="Group-3" transform="translate(0.000000, 0.068276)">
                        <mask id="mask-2" fill="white">
                            <use xlink:href="#path-1"></use>
                        </mask>
                        <g id="Clip-2"></g>
                        <path d="M17.5796483,0.13862069 L11.6315793,0.13862069 L11.5959931,0.13862069 C10.1632345,0.13862069 9.00192414,1.29993103 9.00192414,2.73268966 L9.00192414,5.77427586 L9.00192414,21.1992414 L2.9679931,21.1992414 L2.9679931,12.2017241 L0.0354413793,12.2017241 C0.0294413793,12.2652414 0.0253034483,12.3302069 0.0253034483,12.3974483 L0.0253034483,21.1992414 L0.0253034483,23.7931034 L9.00192414,23.7931034 C10.4543379,23.7931034 11.6315793,22.6156552 11.6315793,21.1634483 L11.6315793,2.73268966 L17.5796483,2.73268966 L17.5796483,11.8237241 L20.5059931,11.8237241 C20.5378552,11.5152414 20.5477862,11.1798621 20.5477862,10.8289655 L20.522131,2.73268966 L20.5477862,0.13862069 L17.5796483,0.13862069 Z" id="Fill-1" fill="url(#linearGradient-3)" mask="url(#mask-2)"></path>
                    </g>
                    <path d="M9.00198621,5.42135172 L9.00177931,11.1405931 L9.00177931,15.4359724 C9.62743448,17.478869 11.6316414,18.2673517 11.6316414,18.2673517 L11.6316414,8.1108 C11.0020552,6.17031724 9.00198621,5.42135172 9.00198621,5.42135172" id="Fill-4" fill="#324EBD"></path>
                    <g id="Group-7" transform="translate(0.000000, 6.482069)">
                        <mask id="mask-5" fill="white">
                            <use xlink:href="#path-4"></use>
                        </mask>
                        <g id="Clip-6"></g>
                        <path d="M5.83392414,0.022137931 C2.61192414,0.0372413793 0.0122689655,2.66151724 0.0275120299,5.88331034 C0.0275120299,5.88537931 0.0279931034,5.99586207 0.0279931034,5.99793103 L2.97109655,5.95489655 C2.97047586,4.29310345 4.18351034,2.84255172 5.84695862,2.83468966 C7.26357931,2.82806897 8.45364828,3.79903448 8.78654483,5.11282759 C8.78716552,5.11158621 8.78882069,5.10786207 8.78882069,5.10786207 C8.78882069,5.10786207 8.82523448,5.2142069 8.86661379,5.38903448 L8.86433793,5.32593103 C8.8659931,5.35406897 8.86930345,5.38158621 8.87137241,5.40951724 C8.90075172,5.53655172 8.93075172,5.69834483 8.95247586,5.88124138 L8.95268276,5.88124138 C8.9739931,6.036 9.00171724,6.23441379 9.00937241,6.28903448 C9.27047586,7.40855172 9.8504069,8.40434483 10.6523379,9.17317241 C11.7068897,10.1842759 13.1375793,10.8053793 14.7139241,10.7979973 C17.9357172,10.7828276 20.5351655,8.15855172 20.5201276,4.93675862 C20.5192345,4.74227586 20.5043379,4.55131034 20.4828207,4.3617931 L17.5746828,4.37544828 L17.5771655,4.8717931 C17.5850276,6.5402069 16.3690966,7.97731034 14.7006828,7.98537931 C13.3306138,7.9917931 12.1726138,7.08413793 11.7966828,5.83593103 L11.7950276,5.83551724 L11.7944069,5.83448276 L11.7966828,5.83593103 C11.7966828,5.83593103 11.7348207,5.66482759 11.6977862,5.51731034 C11.6694414,5.37248276 11.6464759,5.20903448 11.630131,5.08117241 L11.630131,5.08096552 C11.6224759,5.02241379 11.5912345,4.82668966 11.5728207,4.71103448 C11.3344759,3.51868966 10.7396483,2.45627586 9.89509655,1.64689655 C8.84675172,0.642 7.42682069,0.022137931 5.86185517,0.022137931 C5.85233793,0.022137931 5.84323448,0.022137931 5.83392414,0.022137931 Z" id="Fill-5" fill="url(#linearGradient-6)" mask="url(#mask-5)"></path>
                    </g>
                </g>
            </g>
        </g>
    </g>
</svg>