<?xml version="1.0" encoding="UTF-8" standalone="no"?>
<!DOCTYPE svg PUBLIC "-//W3C//DTD SVG 1.1//EN" "http://www.w3.org/Graphics/SVG/1.1/DTD/svg11.dtd">
<svg width="100%" height="100%" viewBox="0 0 597 688" version="1.1" xmlns="http://www.w3.org/2000/svg" xmlns:xlink="http://www.w3.org/1999/xlink" xml:space="preserve" xmlns:serif="http://www.serif.com/" style="fill-rule:evenodd;clip-rule:evenodd;stroke-linejoin:round;stroke-miterlimit:1.41421;">
    <g transform="matrix(5.55556,0,0,5.55556,0,0)">
        <g id="symbol">
            <g transform="matrix(99.1919,0,0,-99.1919,4.0601,62.0622)">
                <path d="M0.855,0.576L0.566,0.576L0.564,0.576C0.494,0.576 0.437,0.52 0.437,0.45L0.437,0.302L0.437,-0.45L0.143,-0.45L0.143,-0.011L0,-0.011C0,-0.015 0,-0.018 0,-0.021L0,-0.45L0,-0.576L0.437,-0.576C0.508,-0.576 0.566,-0.519 0.566,-0.448L0.566,0.45L0.855,0.45L0.855,0.007L0.998,0.007C1,0.022 1,0.038 1,0.055L0.999,0.45L1,0.576L0.855,0.576Z" style="fill:url(#_Linear1);fill-rule:nonzero;"/>
            </g>
            <g opacity="0.26">
                <g transform="matrix(1,0,0,1,47.4473,92.1892)">
                    <path d="M0,-62.089L-0.001,-34.446L-0.001,-13.685C3.023,-3.811 12.71,0 12.71,0L12.71,-34.446L12.71,-40.159L12.71,-49.09C9.667,-58.469 0,-62.089 0,-62.089" style="fill-rule:nonzero;"/>
                </g>
            </g>
            <g transform="matrix(99.0673,-0.466344,-0.466344,-99.0673,4.06065,61.6085)">
                <path d="M0.285,0.264C0.127,0.264 0,0.136 0,-0.021C0,-0.021 0,-0.026 0,-0.026L0.144,-0.025C0.144,0.056 0.203,0.127 0.285,0.127C0.354,0.127 0.412,0.079 0.428,0.015C0.428,0.015 0.428,0.015 0.428,0.015C0.428,0.015 0.429,0.01 0.431,0.001L0.431,0.004C0.431,0.003 0.431,0.002 0.432,0C0.433,-0.006 0.434,-0.014 0.435,-0.023L0.435,-0.023C0.436,-0.03 0.438,-0.04 0.438,-0.043C0.451,-0.097 0.479,-0.146 0.518,-0.184C0.569,-0.233 0.638,-0.264 0.715,-0.264C0.873,-0.264 1,-0.136 1,0.021C1,0.03 0.999,0.04 0.998,0.049L0.856,0.049L0.856,0.025C0.856,-0.057 0.797,-0.127 0.715,-0.127C0.649,-0.127 0.592,-0.082 0.574,-0.021L0.574,-0.021L0.574,-0.021L0.574,-0.021C0.574,-0.021 0.571,-0.013 0.569,-0.006C0.568,0.002 0.567,0.009 0.566,0.016L0.566,0.016C0.566,0.019 0.564,0.028 0.564,0.034C0.552,0.092 0.523,0.144 0.482,0.184C0.431,0.233 0.362,0.264 0.286,0.264C0.286,0.264 0.285,0.264 0.285,0.264Z" style="fill:url(#_Linear2);fill-rule:nonzero;"/>
            </g>
        </g>
    </g>
    <defs>
        <linearGradient id="_Linear1" x1="0" y1="0" x2="1" y2="0" gradientUnits="userSpaceOnUse" gradientTransform="matrix(1,0,0,-1,0,3.65756e-06)"><stop offset="0" style="stop-color:rgb(0,145,255);stop-opacity:1"/><stop offset="1" style="stop-color:rgb(131,63,255);stop-opacity:1"/></linearGradient>
        <linearGradient id="_Linear2" x1="0" y1="0" x2="1" y2="0" gradientUnits="userSpaceOnUse" gradientTransform="matrix(1,0,0,-1,0,-3.18913e-06)"><stop offset="0" style="stop-color:rgb(0,145,255);stop-opacity:1"/><stop offset="1" style="stop-color:rgb(131,63,255);stop-opacity:1"/></linearGradient>
    </defs>
</svg>
