<?xml version="1.0" encoding="UTF-8" standalone="no"?><!DOCTYPE svg PUBLIC "-//W3C//DTD SVG 1.1//EN" "http://www.w3.org/Graphics/SVG/1.1/DTD/svg11.dtd"><svg width="100%" height="100%" viewBox="0 0 108 124" version="1.1" xmlns="http://www.w3.org/2000/svg" xmlns:xlink="http://www.w3.org/1999/xlink" xml:space="preserve" xmlns:serif="http://www.serif.com/" style="fill-rule:evenodd;clip-rule:evenodd;stroke-linejoin:round;stroke-miterlimit:2;"><g id="symbol"><path d="M88.906,4.897l-28.749,0l-0.172,0c-6.925,0 -12.538,5.613 -12.538,12.538l0,14.701l0,69.554c0,1.326 -0.527,2.598 -1.464,3.536c-0.938,0.937 -2.21,1.464 -3.536,1.464c-8.335,0 -24.164,0 -24.164,0l0,-43.488l-14.174,0c-0.029,0.307 -0.049,0.621 -0.049,0.946l0,42.542l0,12.537l43.387,0c7.02,0 12.71,-5.691 12.71,-12.71l0,-84.082c0,-1.326 0.527,-2.598 1.464,-3.536c0.938,-0.937 2.21,-1.464 3.536,-1.464c8.235,0 23.749,0 23.749,0l0,43.94l14.144,0c0.154,-1.491 0.202,-3.112 0.202,-4.808l-0.124,-39.132l0.124,-12.538l-14.346,0Z" style="fill:url(#_Linear1);fill-rule:nonzero;"/><g><path d="M47.447,30.1l-0.001,27.643l0,20.761c3.024,9.874 12.711,13.685 12.711,13.685l0,-34.446l0,-5.713l0,-8.931c-3.043,-9.379 -12.71,-12.999 -12.71,-12.999" style="fill:#2a4db5;fill-rule:nonzero;"/></g><path d="M32.135,35.334c-15.573,0.073 -28.138,12.757 -28.064,28.329c0,0.01 0.002,0.544 0.002,0.554l14.191,-0.206c-0.003,-8.032 5.894,-15.045 13.934,-15.083c6.847,-0.032 12.599,4.661 14.208,11.011c0.003,-0.006 0,0 0,0c0,0 0.4,1.299 0.41,1.434c0.142,0.614 0.287,1.396 0.392,2.28l0.001,0c0.103,0.748 0.237,1.707 0.274,1.971c1.262,5.411 4.065,10.224 7.941,13.94c5.097,4.887 12.012,7.889 19.631,7.853c15.572,-0.073 28.136,-12.757 28.063,-28.329c-0.004,-0.94 -0.076,-1.863 -0.18,-2.779l-14.056,0.066l0.012,2.399c0.038,8.064 -5.839,15.01 -13.903,15.049c-6.622,0.031 -12.219,-4.356 -14.036,-10.389l-0.008,-0.002l-0.003,-0.005l0.011,0.007c0,0 -0.299,-0.827 -0.478,-1.54c-0.137,-0.7 -0.248,-1.49 -0.327,-2.108l0,-0.001c-0.037,-0.283 -0.188,-1.229 -0.277,-1.788c-1.152,-5.763 -4.027,-10.898 -8.109,-14.81c-5.067,-4.857 -11.93,-7.853 -19.494,-7.853l-0.135,0Z" style="fill:url(#_Linear2);fill-rule:nonzero;"/></g><defs><linearGradient id="_Linear1" x1="0" y1="0" x2="1" y2="0" gradientUnits="userSpaceOnUse" gradientTransform="matrix(99.1919,0,0,99.1919,4.0601,62.0618)"><stop offset="0" style="stop-color:#2f5de9;stop-opacity:1"/><stop offset="1" style="stop-color:#2f5de9;stop-opacity:1"/></linearGradient><linearGradient id="_Linear2" x1="0" y1="0" x2="1" y2="0" gradientUnits="userSpaceOnUse" gradientTransform="matrix(99.0673,-0.466344,0.466344,99.0673,4.06065,61.6088)"><stop offset="0" style="stop-color:#2f5de9;stop-opacity:1"/><stop offset="1" style="stop-color:#2f5de9;stop-opacity:1"/></linearGradient></defs></svg>